<?xml version="1.0" ?><svg viewBox="0 0 64 64" xmlns="http://www.w3.org/2000/svg" fill="#0d6efd"><g id="Outline"><g data-name="Outline" id="Outline-2"><path d="M46,29H56a1,1,0,0,0,0-2H46a1,1,0,0,0,0,2Z"/><path d="M41,33H56a1,1,0,0,0,0-2H41a1,1,0,0,0,0,2Z"/><path d="M15,52v4a1,1,0,0,0,1,1H35a1,1,0,0,0,1-1V52a1,1,0,0,0-1-1H16A1,1,0,0,0,15,52Zm2,1H34v2H17Z"/><path d="M59,14H57V9a1,1,0,0,0-1-1H50V3a1,1,0,0,0-1-1H7A1,1,0,0,0,6,3V14H5.68A3.85,3.85,0,0,0,2,18V57.92A3.93,3.93,0,0,0,5.74,62H58.41A3.86,3.86,0,0,0,62,57.92V17A3,3,0,0,0,59,14Zm0,2a1,1,0,0,1,1,1v5H57V16Zm-4,6H34.36a.83.83,0,0,1-.57-.23l-7.42-7A2.83,2.83,0,0,0,24.43,14H15V10H55ZM4,57.92V18a1.86,1.86,0,0,1,1.68-2H6V57a1,1,0,0,0,1,1h3a4.42,4.42,0,0,0,.51,2H5.74A1.93,1.93,0,0,1,4,57.92Zm56,0A1.91,1.91,0,0,1,58.41,60H13.59A1.91,1.91,0,0,1,12,57.92V41a1,1,0,0,0-2,0V56H8V4H48V8H14a1,1,0,0,0-1,1v5.06A3.87,3.87,0,0,0,10,18V33a1,1,0,0,0,2,0V18a1.84,1.84,0,0,1,1.53-2h10.9a.83.83,0,0,1,.57.23l7.42,7a2.83,2.83,0,0,0,1.94.78H60Z"/><path d="M32,15H52a1,1,0,0,0,0-2H32a1,1,0,0,0,0,2Z"/><path d="M52,17H37a1,1,0,0,0,0,2H52a1,1,0,0,0,0-2Z"/><circle cx="11" cy="37" r="1"/></g></g></svg>